# xmcd CD database file
#
# Track frame offsets:
#	150
#	23965
#	48967
#	69755
#	106462
#
# Disc length: 1472 seconds
#
# Revision: 0
# Processed by: cddbd v1.5.1PL0 Copyright (c) Steve Scherf et al.
# Submitted via: CDex 1.51
#
DISCID=3705be05
DTITLE=WINO - New Dawn F
DYEAR=2001
DGENRE=Rock
TTITLE0=New Dawn F
TTITLE1=Lost Communication
TTITLE2=Little Saviour
TTITLE3=Inhaler [Live]
TTITLE4=CDEXTRA
EXTD=YEAR: 2001
EXTT0=
EXTT1=
EXTT2=
EXTT3=
EXTT4=
PLAYORDER=
